<svg width="63" height="79" viewBox="0 0 63 79" fill="none" xmlns="http://www.w3.org/2000/svg">
<path d="M7.875 7.9V27.65M7.875 79C5.70937 79 3.85612 78.2271 2.31525 76.6814C0.771749 75.1329 0 73.2725 0 71.1V7.9C0 5.7275 0.771749 3.86705 2.31525 2.31865C3.85612 0.772883 5.70937 0 7.875 0H36.1266C37.1766 0 38.178 0.1975 39.1309 0.5925C40.0811 0.9875 40.9172 1.54708 41.6391 2.27125L60.7359 21.4288C61.4578 22.1529 62.0156 22.9916 62.4094 23.9449C62.8031 24.9008 63 25.9054 63 26.9587V71.1C63 73.2725 62.2296 75.1329 60.6887 76.6814C59.1452 78.2271 57.2906 79 55.125 79H7.875ZM35.4375 23.7V7.9H7.875V71.1H55.125V27.65H39.375C38.2594 27.65 37.3249 27.2708 36.5715 26.5124C35.8155 25.7566 35.4375 24.8192 35.4375 23.7Z" fill="#EB4899"/>
<path d="M7.875 7.9V27.65M7.875 79C5.70937 79 3.85612 78.2271 2.31525 76.6814C0.771749 75.1329 0 73.2725 0 71.1V7.9C0 5.7275 0.771749 3.86705 2.31525 2.31865C3.85612 0.772883 5.70937 0 7.875 0H36.1266C37.1766 0 38.178 0.1975 39.1309 0.5925C40.0811 0.9875 40.9172 1.54708 41.6391 2.27125L60.7359 21.4288C61.4578 22.1529 62.0156 22.9916 62.4094 23.9449C62.8031 24.9008 63 25.9054 63 26.9587V71.1C63 73.2725 62.2296 75.1329 60.6887 76.6814C59.1452 78.2271 57.2906 79 55.125 79H7.875ZM35.4375 23.7V7.9H7.875V71.1H55.125V27.65H39.375C38.2594 27.65 37.3249 27.2708 36.5715 26.5124C35.8155 25.7566 35.4375 24.8192 35.4375 23.7Z" stroke="#7F57E6"/>
<path d="M19.9727 46.928C21.5952 48.6298 22.1731 49.4557 23.6276 51.3032C24.5402 52.4624 25.8118 54.1657 26.5941 55.2216C26.9639 55.7206 27.6938 55.7677 28.1239 55.3197L44.196 38.5776" stroke="#EB4899" stroke-width="7" stroke-linecap="round"/>
</svg>
