<svg width="63" height="79" viewBox="0 0 63 79" fill="none" xmlns="http://www.w3.org/2000/svg">
<path d="M27.5625 50.6587V63.2C27.5625 64.3192 27.9405 65.2566 28.6965 66.0124C29.4499 66.7708 30.3844 67.15 31.5 67.15C32.6156 67.15 33.5514 66.7708 34.3074 66.0124C35.0608 65.2566 35.4375 64.3192 35.4375 63.2V50.6587L38.9812 54.2138C39.375 54.6088 39.8186 54.905 40.3121 55.1025C40.803 55.3 41.2952 55.3816 41.7887 55.3474C42.2796 55.3158 42.7547 55.2013 43.2141 55.0038C43.6734 54.8063 44.1 54.51 44.4938 54.115C45.2156 53.325 45.5936 52.4033 45.6278 51.35C45.6593 50.2967 45.2813 49.375 44.4938 48.585L34.2562 38.315C33.8625 37.92 33.4359 37.6396 32.9766 37.4737C32.5172 37.3104 32.025 37.2288 31.5 37.2288C30.975 37.2288 30.4828 37.3104 30.0234 37.4737C29.5641 37.6396 29.1375 37.92 28.7438 38.315L18.5062 48.585C17.7187 49.375 17.3421 50.2967 17.3762 51.35C17.4077 52.4033 17.8172 53.325 18.6047 54.115C19.3922 54.8392 20.3109 55.2184 21.3609 55.2526C22.4109 55.2842 23.3297 54.905 24.1172 54.115L27.5625 50.6587ZM7.875 79C5.70937 79 3.85612 78.2271 2.31525 76.6814C0.771749 75.133 0 73.2725 0 71.1V7.9C0 5.7275 0.771749 3.86705 2.31525 2.31865C3.85612 0.772883 5.70937 0 7.875 0H36.1266C37.1766 0 38.178 0.1975 39.1309 0.5925C40.0811 0.9875 40.9172 1.54708 41.6391 2.27125L60.7359 21.4288C61.4578 22.1529 62.0156 22.9916 62.4094 23.9449C62.8031 24.9008 63 25.9054 63 26.9587V71.1C63 73.2725 62.2296 75.133 60.6887 76.6814C59.1452 78.2271 57.2906 79 55.125 79H7.875ZM35.4375 23.7V7.9H7.875V71.1H55.125V27.65H39.375C38.2594 27.65 37.3249 27.2708 36.5715 26.5124C35.8155 25.7566 35.4375 24.8192 35.4375 23.7ZM7.875 7.9V27.65V7.9V71.1V7.9Z" fill="#EB4899"/>
</svg>
