<svg width="27" height="35" viewBox="0 0 27 35" fill="none" xmlns="http://www.w3.org/2000/svg">
<path d="M25.5977 11.8698C24.8594 10.8634 23.8297 9.68473 22.6999 8.55498C21.5702 7.42523 20.3915 6.39548 19.3852 5.65721C17.6703 4.3998 16.8384 4.25513 16.3619 4.25513H4.12823C2.66233 4.25513 1.46875 5.4487 1.46875 6.91461V31.3819C1.46875 32.8478 2.66233 34.0413 4.12823 34.0413H24.3403C25.8062 34.0413 26.9998 32.8478 26.9998 31.3819V14.8931C26.9998 14.4165 26.8551 13.5846 25.5977 11.8698ZM21.1936 10.0613C22.2149 11.0826 23.0148 12.0017 23.6063 12.7655H18.4873V7.64863C19.2511 8.2401 20.1724 9.04007 21.1915 10.0613H21.1936ZM24.8722 31.3819C24.8722 31.6712 24.6297 31.9138 24.3403 31.9138H4.12823C3.98768 31.9121 3.85335 31.8555 3.75396 31.7561C3.65457 31.6567 3.59799 31.5224 3.59634 31.3819V6.91461C3.59634 6.62739 3.83888 6.38271 4.12823 6.38271H16.3619V13.8293C16.3619 14.1114 16.4739 14.382 16.6734 14.5815C16.8729 14.781 17.1435 14.8931 17.4257 14.8931H24.8722V31.3819Z" fill="#5064DF"/>
<path d="M17.9164 1.40208C16.2016 0.144676 15.3697 0 14.8931 0H2.65948C1.19358 0 0 1.19358 0 2.65948V27.1267C0 28.4118 0.914863 29.4862 2.12759 29.733V2.65948C2.12759 2.37226 2.37226 2.12759 2.65948 2.12759H18.844C18.5406 1.87758 18.2306 1.63566 17.9143 1.40208H17.9164Z" fill="#5064DF"/>
</svg>
