<svg width="1457" height="1457" viewBox="0 0 1457 1457" fill="none" xmlns="http://www.w3.org/2000/svg">
<g clip-path="url(#clip0_5_509)">
<rect width="1457" height="1457" rx="728.5" fill="url(#paint0_linear_5_509)"/>
<path fill-rule="evenodd" clip-rule="evenodd" d="M24.4731 903.935L56.1939 973.009C118.795 908.08 159.045 891.695 234.318 876.098C148.916 949.297 129.042 1071.74 187.603 1177.93L234.318 1125.59C183.89 1000.85 261.972 891.563 433.59 880.222C386.686 960.081 370.416 1009.32 370.962 1113.22C304.695 1132.81 271.132 1159.93 231.105 1224.83L282.083 1269.01C312.073 1224.16 337.467 1204.29 388.856 1190.54C392.658 1257.21 387.279 1289.66 373.844 1329.51L431.619 1360.77C451.978 1295.31 458.17 1252.31 450.67 1168.89C543.826 1134.35 592.523 1105.33 645.062 959.607C660.9 1015.24 674.438 1041.03 704.437 1080.23C679.863 1114.15 651.348 1140.75 622.861 1167.32C566.489 1219.9 510.226 1272.38 484.831 1381.27L545.019 1402.92C561.389 1344.68 577.268 1315.16 621.475 1269.93C624.163 1336.73 631.77 1369.83 649.942 1425.6L719.077 1432.82C661.329 1278.18 684.916 1211.16 747.545 1139C820.975 1230.46 822.345 1296.37 773.572 1432.82L845.147 1425.6C862.597 1370.59 869.757 1337.66 871.174 1269.93C912.28 1311.28 928.669 1341.34 950.07 1402.92L1008.63 1381.27C990.027 1289.81 936.107 1234.83 874.536 1172.05C847.274 1144.26 818.512 1114.93 790.652 1080.23C822.028 1037.68 833.723 1010.54 850.027 959.607C891.751 1088.34 938.014 1128.17 1042.79 1167.86C1035.29 1246.03 1041.79 1288.1 1062.31 1361.68L1119.48 1330.87C1104.37 1269.84 1099.22 1235.68 1105.42 1190.54C1152.52 1205.42 1178.32 1227 1213.28 1267.65L1262.22 1224.83C1219.74 1158.46 1187.21 1132.22 1123.31 1114.25C1118.19 1006.86 1111.36 950.342 1063.94 882.284C1226.61 887.439 1316.89 1011.16 1255.89 1121.47L1305.73 1179.97C1353.71 1093.37 1355.12 963.731 1259.96 877.129C1325.19 886.146 1364.08 906.926 1437.27 969.916L1468.18 900.842C1328.53 769.354 1191.07 784.642 1076.22 797.414C1050.59 800.265 1026.09 802.99 1002.94 803.93C864.935 809.537 821.353 708.027 800.672 603.651C814.174 542.211 835.228 538.993 881.025 531.993C888.682 530.823 897.029 529.547 906.148 527.876L919.82 441.379C893.943 459.418 870.93 457.732 849.973 456.197C821.621 454.12 797.031 452.318 774.195 499.997C774.233 497.819 774.459 496.093 774.674 494.453C774.997 491.992 775.294 489.724 774.892 486.415C756.396 334.137 867.798 332.152 919.973 331.222C936.879 330.921 947.567 330.73 945.6 325.573C949.558 303.144 812.539 238.834 739.527 297.027C678.292 345.835 686.353 494.953 688.549 527.876C704.437 766.027 551.928 795.946 433.59 795.946C427.198 795.589 420.872 795.228 414.609 794.871C253.777 785.69 134.858 778.901 24.4731 903.935ZM748.365 773.931C656.253 886.663 721.315 1031.74 747.498 1041.55C815.734 958.224 802.246 855.294 748.365 773.931ZM894.377 905.288C1002.19 919.012 1043.45 972.928 1050.68 1109.19C956.173 1079.78 914.914 1022.92 894.377 905.288ZM601.597 903.328C562.629 903.328 442.818 931.756 445.29 1107.23C534.857 1079.78 576.612 1028.73 601.597 903.328Z" fill="url(#paint1_linear_5_509)"/>
</g>
<rect x="25.829" y="25.829" width="1405.34" height="1405.34" rx="702.671" stroke="url(#paint2_linear_5_509)" stroke-width="51.6579"/>
<defs>
<linearGradient id="paint0_linear_5_509" x1="471.382" y1="111.418" x2="1028.47" y2="1328.44" gradientUnits="userSpaceOnUse">
<stop stop-color="#93F8FF"/>
<stop offset="1" stop-color="#FFACE6"/>
</linearGradient>
<linearGradient id="paint1_linear_5_509" x1="746.325" y1="273.288" x2="746.325" y2="1432.82" gradientUnits="userSpaceOnUse">
<stop stop-color="#0091CD"/>
<stop offset="1" stop-color="#9A0053"/>
</linearGradient>
<linearGradient id="paint2_linear_5_509" x1="391.145" y1="91.2353" x2="1151.29" y2="1307.13" gradientUnits="userSpaceOnUse">
<stop stop-color="#01B5FF"/>
<stop offset="1" stop-color="#8B1262"/>
</linearGradient>
<clipPath id="clip0_5_509">
<rect width="1457" height="1457" rx="728.5" fill="white"/>
</clipPath>
</defs>
</svg>
