<svg width="19" height="19" viewBox="0 0 19 19" fill="none" xmlns="http://www.w3.org/2000/svg">
<path d="M9.49963 0C9.10634 0 8.72915 0.155099 8.45105 0.431176C8.17294 0.707253 8.01671 1.08169 8.01671 1.47213V8.83276C8.01671 9.22319 8.17294 9.59763 8.45105 9.87371C8.72915 10.1498 9.10634 10.3049 9.49963 10.3049C9.89293 10.3049 10.2701 10.1498 10.5482 9.87371C10.8263 9.59763 10.9826 9.22319 10.9826 8.83276V1.47213C10.9826 1.08169 10.8263 0.707253 10.5482 0.431176C10.2701 0.155099 9.89293 0 9.49963 0V0ZM4.19372 1.90935C3.97981 1.93617 3.77836 2.02414 3.6139 2.16255C2.48621 3.04509 1.57503 4.17022 0.949026 5.45314C0.323023 6.73606 -0.00146929 8.14331 5.00122e-06 9.56882C5.00122e-06 14.764 4.2649 19 9.49963 19C14.7344 19 19 14.764 19 9.56882C19 6.57084 17.5897 3.88862 15.3854 2.16182C15.2712 2.0712 15.1403 2.00378 14.9999 1.96341C14.8595 1.92304 14.7125 1.91051 14.5673 1.92654C14.4221 1.94257 14.2814 1.98684 14.1534 2.05682C14.0254 2.12681 13.9125 2.22114 13.8213 2.33442C13.73 2.44771 13.6621 2.57774 13.6214 2.71708C13.5807 2.85642 13.5681 3.00235 13.5842 3.14654C13.6004 3.29072 13.645 3.43033 13.7155 3.55741C13.786 3.68448 13.881 3.79653 13.9951 3.88715C14.8622 4.56291 15.5631 5.4256 16.0448 6.40993C16.5266 7.39427 16.7765 8.47447 16.7756 9.56882C16.778 10.518 16.5914 11.4583 16.2265 12.3357C15.8617 13.2131 15.3259 14.0103 14.6498 14.6814C13.9737 15.3526 13.1706 15.8846 12.2868 16.2467C11.403 16.6089 10.4558 16.7941 9.49963 16.7918C8.54348 16.7941 7.59628 16.6089 6.71246 16.2467C5.82864 15.8846 5.02561 15.3526 4.3495 14.6814C3.6734 14.0103 3.13754 13.2131 2.77272 12.3357C2.4079 11.4583 2.22131 10.518 2.22365 9.56882C2.22303 8.47451 2.47302 7.39438 2.95471 6.41008C3.43641 5.42578 4.13721 4.56306 5.00414 3.88715C5.2005 3.74074 5.34252 3.53393 5.40805 3.29898C5.47359 3.06403 5.45894 2.81415 5.36641 2.58833C5.27388 2.36251 5.10866 2.17344 4.89653 2.05062C4.68439 1.92779 4.43728 1.87812 4.19372 1.90935Z" fill="#F21282"/>
</svg>
