<svg width="40" height="40" viewBox="0 0 40 40" fill="none" xmlns="http://www.w3.org/2000/svg">
<circle cx="20" cy="20" r="20" fill="#8247E5"/>
<path d="M27.5093 14.988C26.9756 14.6845 26.2895 14.6845 25.6796 14.988L21.4104 17.4919L18.5134 19.0852L14.3205 21.5891C13.7868 21.8926 13.1007 21.8926 12.4908 21.5891L9.21267 19.6163C8.67902 19.3129 8.29784 18.7059 8.29784 18.023V14.2293C8.29784 13.6223 8.60278 13.0153 9.21267 12.6359L12.4908 10.7391C13.0245 10.4356 13.7106 10.4356 14.3205 10.7391L17.5986 12.7118C18.1323 13.0153 18.5134 13.6223 18.5134 14.3052V16.809L21.4104 15.1398V12.56C21.4104 11.9531 21.1055 11.3461 20.4956 10.9667L14.3967 7.4006C13.8631 7.0971 13.1769 7.0971 12.567 7.4006L6.31571 11.0426C5.70582 11.3461 5.40088 11.9531 5.40088 12.56V19.6922C5.40088 20.2992 5.70582 20.9062 6.31571 21.2856L12.4908 24.8517C13.0245 25.1552 13.7106 25.1552 14.3205 24.8517L18.5134 22.4237L21.4104 20.7545L25.6034 18.3265C26.137 18.023 26.8231 18.023 27.433 18.3265L30.7112 20.2233C31.2448 20.5268 31.626 21.1338 31.626 21.8167V25.6104C31.626 26.2174 31.3211 26.8244 30.7112 27.2038L27.5093 29.1006C26.9756 29.4041 26.2895 29.4041 25.6796 29.1006L22.4015 27.2038C21.8678 26.9003 21.4866 26.2933 21.4866 25.6104V23.1824L18.5897 24.8517V27.3555C18.5897 27.9625 18.8946 28.5695 19.5045 28.9489L25.6796 32.515C26.2133 32.8185 26.8994 32.8185 27.5093 32.515L33.6844 28.9489C34.218 28.6454 34.5992 28.0384 34.5992 27.3555V20.1475C34.5992 19.5405 34.2942 18.9335 33.6844 18.5541L27.5093 14.988Z" fill="white"/>
</svg>
