<svg width="153" height="147" viewBox="0 0 153 147" fill="none" xmlns="http://www.w3.org/2000/svg">
<path d="M38.5187 125.549L18.8115 121.249C17.0199 120.891 15.5867 119.964 14.5117 118.469C13.4368 116.978 13.0187 115.337 13.2576 113.546L15.2283 93.3009L1.79157 77.8934C0.59719 76.5796 0 75.0269 0 73.2354C0 71.4438 0.59719 69.8911 1.79157 68.5773L15.2283 53.1698L13.2576 32.9251C13.0187 31.1335 13.4368 29.4924 14.5117 28.0018C15.5867 26.5065 17.0199 25.5796 18.8115 25.2213L38.5187 20.9215L48.9098 3.36417C49.8653 1.81148 51.1792 0.796253 52.8513 0.318501C54.5234 -0.159251 56.1956 -0.0995317 57.8677 0.497658L76.5 8.38056L95.1323 0.497658C96.8045 -0.0995317 98.4766 -0.159251 100.149 0.318501C101.821 0.796253 103.135 1.81148 104.09 3.36417L114.481 20.9215L134.189 25.2213C135.98 25.5796 137.413 26.5065 138.488 28.0018C139.563 29.4924 139.981 31.1335 139.742 32.9251L137.772 53.1698L151.208 68.5773C152.403 69.8911 153 71.4438 153 73.2354C153 75.0269 152.403 76.5796 151.208 77.8934L137.772 93.3009L139.742 113.546C139.981 115.337 139.563 116.978 138.488 118.469C137.413 119.964 135.98 120.891 134.189 121.249L114.481 125.549L104.09 143.107C103.135 144.659 101.821 145.674 100.149 146.152C98.4766 146.63 96.8045 146.57 95.1323 145.973L76.5 138.09L57.8677 145.973C56.1956 146.57 54.5234 146.63 52.8513 146.152C51.1792 145.674 49.8653 144.659 48.9098 143.107L38.5187 125.549ZM63.959 93.6593C65.2728 94.9731 66.945 95.63 68.9754 95.63C71.0059 95.63 72.678 94.9731 73.9918 93.6593L104.448 63.2026C105.882 61.7693 106.598 60.0661 106.598 58.093C106.598 56.1247 105.882 54.4239 104.448 52.9906C103.015 51.5574 101.314 50.8408 99.3461 50.8408C97.373 50.8408 95.6698 51.5574 94.2365 52.9906L68.9754 78.2518L58.5843 68.0398C57.1511 66.726 55.4503 66.0978 53.4819 66.1551C51.5088 66.2172 49.8653 66.9052 48.5515 68.219C47.2377 69.5328 46.5808 71.2049 46.5808 73.2354C46.5808 75.2658 47.2377 76.9379 48.5515 78.2518L63.959 93.6593Z" fill="#04E35D"/>
</svg>
