<svg width="40" height="40" viewBox="0 0 40 40" fill="none" xmlns="http://www.w3.org/2000/svg">
<circle cx="20" cy="20" r="20" fill="white"/>
<path d="M40 20C40 31.0457 31.0457 40 20 40C8.95431 40 0 31.0457 0 20C0 8.95431 8.95431 0 20 0C31.0457 0 40 8.95431 40 20ZM2.24563 20C2.24563 29.8055 10.1945 37.7544 20 37.7544C29.8055 37.7544 37.7544 29.8055 37.7544 20C37.7544 10.1945 29.8055 2.24563 20 2.24563C10.1945 2.24563 2.24563 10.1945 2.24563 20Z" fill="#F21282"/>
<path d="M33.997 14.9103C33.2323 12.8074 32.0037 10.9039 30.4023 9.34107C28.8009 7.77826 26.8679 6.59636 24.747 5.88319C22.6261 5.17001 20.3718 4.94388 18.1515 5.22161C15.9312 5.49934 13.802 6.27377 11.9221 7.48739L20.0001 20.0001L33.997 14.9103Z" fill="#5546FF"/>
<path d="M30.5314 30.5314C32.7888 28.274 34.2611 25.351 34.7313 22.1934C35.2014 19.0358 34.6445 15.8106 33.1427 12.9935L20.0001 20.0001L30.5314 30.5314Z" fill="#3DE8FF"/>
<path d="M6.34914 25.9559C7.36037 28.2737 8.94509 30.2958 10.954 31.8317C12.9628 33.3676 15.3297 34.3668 17.8315 34.735C20.3333 35.1032 22.8876 34.8283 25.2538 33.9363C27.62 33.0442 29.7201 31.5644 31.3562 29.6363L20.0001 20.0001L6.34914 25.9559Z" fill="#F21282"/>
<path d="M5.91272 15.1662C5.27792 17.0161 5.01372 18.973 5.1352 20.9251C5.25668 22.8772 5.76146 24.7862 6.62072 26.5432L20.0001 20.0001L5.91272 15.1662Z" fill="#A7FF9F"/>
<path d="M13.0086 6.84941C11.2817 7.76754 9.75243 9.01683 8.50828 10.526C7.26412 12.0351 6.32939 13.7745 5.75745 15.6448L20.0001 20.0001L13.0086 6.84941Z" fill="#FCFF6A"/>
</svg>
