<svg width="153" height="147" viewBox="0 0 153 147" fill="none" xmlns="http://www.w3.org/2000/svg">
<path fill-rule="evenodd" clip-rule="evenodd" d="M18.8115 121.249L38.5186 125.549L48.9102 143.107C49.8652 144.659 51.1787 145.674 52.8516 146.152C54.5234 146.63 56.1953 146.57 57.8682 145.973L76.5 138.09L95.1328 145.973C96.8047 146.57 98.4766 146.63 100.148 146.152C101.821 145.674 103.135 144.659 104.09 143.107L114.481 125.549L134.188 121.249C135.98 120.891 137.413 119.964 138.488 118.469C139.563 116.978 139.981 115.337 139.742 113.546L137.771 93.3009L151.208 77.8934C152.402 76.5796 153 75.027 153 73.2353C153 71.4438 152.402 69.8911 151.208 68.5773L137.771 53.1697L139.742 32.925C139.981 31.1335 139.563 29.4924 138.488 28.0019C137.413 26.5063 135.98 25.5796 134.188 25.2214L114.481 20.9216L104.09 3.36425C103.135 1.81151 101.821 0.79613 100.148 0.318591C98.4766 -0.159192 96.8047 -0.0996218 95.1328 0.497546L76.5 8.3806L57.8682 0.497546C56.1953 -0.0996218 54.5234 -0.159192 52.8516 0.318591C51.1787 0.79613 49.8652 1.81151 48.9102 3.36425L38.5186 20.9216L18.8115 25.2214C17.0195 25.5796 15.5869 26.5063 14.5117 28.0019C13.4365 29.4924 13.0186 31.1335 13.2578 32.925L15.2285 53.1697L1.79199 68.5773C0.597656 69.8911 0 71.4438 0 73.2353C0 75.027 0.597656 76.5796 1.79199 77.8934L15.2285 93.3009L13.2578 113.546C13.0186 115.337 13.4365 116.978 14.5117 118.469C15.5869 119.964 17.0195 120.891 18.8115 121.249ZM52.6317 60.8944C49.5215 57.7842 49.5215 52.7416 52.6317 49.6315C55.7419 46.5213 60.7845 46.5213 63.8946 49.6315L76.6578 62.3947L89.421 49.6315C92.5312 46.5213 97.5738 46.5213 100.684 49.6315C103.794 52.7416 103.794 57.7842 100.684 60.8944L87.9208 73.6576L100.684 86.421C103.794 89.5312 103.794 94.5738 100.684 97.684C97.574 100.794 92.5314 100.794 89.4213 97.684L76.6578 84.9205L63.8944 97.684C60.7842 100.794 55.7416 100.794 52.6315 97.684C49.5213 94.5738 49.5213 89.5312 52.6315 86.421L65.3949 73.6576L52.6317 60.8944Z" fill="#DD0000"/>
</svg>
